<?xml version="1.0" encoding="UTF-8"?> <svg xmlns="http://www.w3.org/2000/svg" width="647" height="200" viewBox="0 0 647 200" fill="none"><path d="M79.3499 89.44C91.2399 94.57 100.19 101.38 106.22 109.88C112.24 118.38 115.26 128.42 115.26 140.03C115.26 157.02 109.92 170.71 99.2399 181.09C88.5599 191.48 74.4099 196.67 56.7799 196.67C42.3999 196.67 30.3499 192.95 20.6199 185.51C10.8899 178.07 4.32992 167.49 0.919922 153.78L20.6199 143.94C23.2799 155.13 27.6599 163.6 33.7699 169.36C39.8799 175.12 47.5499 178 56.7699 178C67.6599 178 76.4699 174.83 83.1999 168.48C89.9299 162.13 93.2999 153.87 93.2999 143.69C93.2999 135.45 90.9499 128.28 86.2599 122.18C81.5599 116.08 74.4799 110.93 64.9999 106.73L42.8099 97.14C30.6699 92.01 21.6299 85.41 15.6899 77.34C9.74993 69.27 6.77992 59.6 6.77992 48.33C6.77992 35.21 11.5999 24.36 21.2399 15.78C30.8799 7.2 43.1799 2.91 58.1499 2.91C69.1199 2.91 78.6199 5.27 86.6399 9.97C94.6599 14.68 100.92 21.62 105.41 30.79L87.4499 42.4C83.3799 35.25 78.8099 29.93 73.7399 26.44C68.6699 22.95 62.9299 21.2 56.5299 21.2C48.3799 21.2 41.7099 23.72 36.5199 28.77C31.3199 33.82 28.7299 40.25 28.7299 48.07C28.7299 54.63 30.7299 60.31 34.7199 65.1C38.7099 69.89 44.8999 74.14 53.2999 77.84L79.3499 89.44Z" fill="#1B1B1B"></path><path d="M414.01 199.18L336.83 7.31H360.4L414.02 148.6L467.39 7.31H490.83L414.01 199.18Z" fill="#1B1B1B"></path><path d="M563.26 0L646.3 192H622.73L599.04 135.36H527.72L504.03 192H480.46L563.26 0ZM563.26 48.56L534.21 116.55H592.31L563.26 48.56Z" fill="#1B1B1B"></path><path d="M238.4 1.58C184.05 1.58 139.98 45.65 139.98 100C139.98 132.91 156.12 162.04 180.93 179.89C183.64 181.86 186.47 183.68 189.39 185.36C203.81 193.67 220.55 198.42 238.4 198.42C251.97 198.42 264.9 195.68 276.67 190.69C273.02 189.24 268.75 187.15 264.42 184.09C260.98 181.68 257.51 178.65 254.27 174.86C251.25 171.33 236.18 153.69 241.61 133C242.68 128.87 244.39 125.36 246.24 122.46C248.18 119.39 247.5 120.466 251.94 115.34C251.95 115.33 251.95 115.33 251.97 115.31C252.18 115.08 252.36 114.88 252.51 114.72C254.01 113.09 257.85 109.03 264.23 106.62C265.92 105.97 267.59 105.53 269.22 105.24C272.9 104.57 276.31 104.68 279.18 105.09L273.99 84.47C272.65 65.58 256.91 50.68 237.69 50.68C220.49 50.68 206.08 62.6 202.28 78.63C202.22 78.89 202.16 79.18 202.1 79.47C202 79.92 201.89 80.42 201.8 80.96C200.35 88.33 198.26 103.08 201.29 118.29C201.91 121.43 202.74 124.43 203.54 127.05C203.55 127.08 203.55 127.1 203.57 127.13C205.03 131.87 206.46 135.3 206.66 135.77C207.84 138.58 209.08 141.11 210.27 143.33C210.28 143.34 210.28 143.34 210.28 143.36C211.12 144.9 211.92 146.31 212.68 147.55C212.68 147.55 214.15 149.96 216.76 153.5C219.75 157.58 223.04 162.07 227.56 166.19C235.31 173.23 240.16 173.22 241.75 178.72C242.01 179.62 242.76 182.34 241.46 184.82C240.77 186.16 239.57 187.23 238.02 188C238.02 188 238.02 188 238.01 188C224.54 187.95 211.78 184.85 200.39 179.36C194.99 176.78 189.89 173.64 185.17 170.05C164.05 153.97 150.43 128.57 150.43 99.99C150.43 51.38 189.84 11.97 238.44 11.97C287.05 11.97 326.46 51.38 326.46 99.99C326.46 120.17 319.67 138.77 308.24 153.61C310.14 156.78 312.04 159.96 313.94 163.13C328.24 146.04 336.86 124.02 336.86 99.99C336.82 45.64 292.77 1.58 238.4 1.58ZM236.8 110.03L218.44 100C212.87 94.99 209.36 87.71 209.36 79.61C209.36 79.42 209.36 79.21 209.37 79.02C209.36 78.99 209.37 78.98 209.37 78.96C209.36 78.73 209.36 78.49 209.36 78.26C209.36 77.12 209.5 76 209.76 74.93C209.76 74.9 209.77 74.86 209.79 74.83C211.32 68.92 216.69 64.55 223.08 64.55C230.66 64.55 236.8 70.68 236.8 78.26C236.8 70.68 242.94 64.55 250.51 64.55C256.9 64.55 262.27 68.92 263.8 74.83C263.81 74.86 263.83 74.9 263.83 74.93C264.09 76 264.23 77.12 264.23 78.26C264.23 78.49 264.23 78.73 264.22 78.96C264.22 78.97 264.23 78.99 264.22 79.02C264.23 79.21 264.23 79.42 264.23 79.61C264.23 87.71 260.73 94.98 255.15 100L236.8 110.03Z" fill="#BE9B64"></path><path d="M264.21 78.96C264.22 78.73 264.22 78.49 264.22 78.26C264.22 77.12 264.08 76 263.82 74.93C263.82 74.9 263.81 74.86 263.79 74.83C262.26 68.92 256.89 64.55 250.5 64.55C242.94 64.55 236.79 70.68 236.79 78.26C236.79 70.68 230.65 64.55 223.07 64.55C216.68 64.55 211.31 68.92 209.78 74.83C209.77 74.86 209.75 74.9 209.75 74.93C209.49 76 209.35 77.12 209.35 78.26C209.35 78.49 209.35 78.73 209.36 78.96C209.36 78.97 209.35 78.99 209.36 79.02C209.35 79.21 209.35 79.42 209.35 79.61C209.35 87.71 212.86 94.98 218.43 100L236.79 110.03L255.13 100C260.71 94.99 264.21 87.71 264.21 79.61C264.21 79.42 264.21 79.21 264.2 79.02C264.23 78.99 264.21 78.98 264.21 78.96ZM253.95 88.8L253.91 88.83L253.5 89.05L248.42 91.82H248.41L236.81 98.13L225.2 91.82H225.19L220.05 89.02L219.8 88.88C217.78 87.74 216.41 85.56 216.41 83.07C216.41 79.38 219.4 76.39 223.09 76.39C225.83 76.39 228.2 78.04 229.22 80.41L229.25 80.47L236.81 91.63L239.94 86.99L244.36 80.47L244.39 80.41C245.42 78.04 247.78 76.39 250.52 76.39C254.21 76.39 257.21 79.38 257.21 83.07C257.2 85.51 255.89 87.63 253.95 88.8Z" fill="#E2BE8D"></path><path d="M257.2 83.07C257.2 85.51 255.89 87.63 253.95 88.8L253.91 88.83L253.5 89.05L248.42 91.82H248.41L236.81 98.13L225.2 91.82H225.19L220.05 89.02L219.8 88.88C217.78 87.74 216.41 85.56 216.41 83.07C216.41 79.38 219.4 76.39 223.09 76.39C225.83 76.39 228.2 78.04 229.22 80.41L229.25 80.47L236.81 91.63L239.94 86.99L244.36 80.47L244.39 80.41C245.42 78.04 247.78 76.39 250.52 76.39C254.2 76.39 257.2 79.38 257.2 83.07Z" fill="#82694C"></path><path d="M329.17 188.69C325.44 189.64 320.12 190.69 313.7 190.92C309.02 191.07 298.01 191.33 285.41 186.47C283.34 185.67 281.24 184.73 279.11 183.65C277.24 182.69 275.47 181.67 273.79 180.59C257.26 169.96 250.41 154.76 248.28 150C243.38 139.1 244.04 132.86 244.41 130.55C244.92 127.35 245.872 124.65 247.062 122.32C248.712 119.1 250.641 116.76 251.831 115.43C251.841 115.42 251.94 115.33 251.96 115.31C252.17 115.08 252.35 114.88 252.5 114.72C254 113.09 257.84 109.03 264.22 106.62C265.91 105.97 267.58 105.53 269.21 105.24C272.89 104.57 276.3 104.68 279.17 105.09C288.84 121.26 298.51 137.45 308.19 153.62C310.09 156.79 311.99 159.97 313.89 163.14C318.98 171.65 324.08 180.18 329.17 188.69Z" fill="#E2BE8D"></path><path d="M329.17 188.69C323.83 191.25 306.61 198.66 285.56 193.5C283.73 193.05 280.55 192.23 276.66 190.69C273.01 189.24 268.74 187.15 264.41 184.09C260.97 181.68 257.5 178.65 254.26 174.86C251.24 171.33 236.17 153.69 241.6 133C243.5 125 249.267 117.517 251.94 115.34C252.585 114.42 248.893 118.595 247.17 122.23C245.97 124.56 244.92 127.35 244.42 130.55C244.05 132.86 243.39 139.1 248.29 150C250.43 154.77 257.27 169.96 273.8 180.59C275.48 181.66 277.24 182.68 279.12 183.65C281.24 184.74 283.35 185.67 285.42 186.47C298.02 191.33 309.03 191.07 313.71 190.92C320.12 190.69 325.44 189.64 329.17 188.69Z" fill="#94734A"></path><path d="M241.43 184.82C240.74 186.16 239.54 187.23 237.99 188C237.99 188 237.99 188 237.98 188C224.51 187.95 211.75 184.85 200.36 179.36C205.07 175.75 208.64 171.25 210.57 166.16C211.66 163.28 214.54 155.61 212.07 147.65C211.62 146.2 211.13 145.17 210.27 143.35C211.11 144.89 211.91 146.3 212.67 147.54C212.67 147.54 214.14 149.95 216.75 153.49C219.74 157.57 223.03 162.06 227.55 166.18C235.3 173.22 240.15 173.21 241.74 178.71C241.98 179.62 242.72 182.34 241.43 184.82Z" fill="#94734A"></path></svg> 